<svg id="Group_756" data-name="Group 756" xmlns="http://www.w3.org/2000/svg" xmlns:xlink="http://www.w3.org/1999/xlink" width="210.439" height="194.372" viewBox="0 0 210.439 194.372">
  <defs>
    <clipPath id="clip-path">
      <rect id="Rectangle_56" data-name="Rectangle 56" width="210.439" height="194.372" fill="#e52713"/>
    </clipPath>
  </defs>
  <g id="Group_756-2" data-name="Group 756" clip-path="url(#clip-path)">
    <path id="Path_670" data-name="Path 670" d="M121.283,126.4c1.595-23.514,21.376-19.332,28.712-15.781,1.027.5,9.408,4.743,19.654,9.945l.109-.055c26.842-15.28,26.842-41.368.03-56.009,0,0-109.325-56.308-114.656-58.919C40.371-1.653,3.016-9.485,0,35.4V144.455c-.241,18.8,12.955,54.225,54.978,33.589,0,0,12.537-5.894,66.3-33Z" transform="translate(0 0)" fill="#e52713"/>
    <path id="Path_671" data-name="Path 671" d="M231.275,186.232c-6.72-3.291-23.726-6.857-25.1,13.577v49.645c-.109,8.557,5.9,24.685,25.028,15.291,0,0,8.913-4.19,52.25-26.194,12.219-6.956,12.219-18.832.014-25.5,0,0-49.77-25.633-52.2-26.821" transform="translate(-82.184 -73.222)" fill="#00244d"/>
    <path id="Path_672" data-name="Path 672" d="M103.5,191.3c-3.9,0-5.139-3.73-5.139-9.658,0-5.678,1.284-9.906,5.139-9.906s5.139,4.228,5.139,9.906c0,5.928-1.284,9.658-5.139,9.658m0,4.227c7.626,0,10.776-6.341,10.776-13.885,0-7.5-3.15-14.091-10.776-14.091-7.667,0-10.776,6.59-10.776,14.091,0,7.544,3.109,13.885,10.776,13.885M79.213,191.3c-3.9,0-5.14-3.73-5.14-9.658,0-5.678,1.285-9.906,5.14-9.906s5.139,4.228,5.139,9.906c0,5.928-1.285,9.658-5.139,9.658m0,4.227c7.627,0,10.776-6.341,10.776-13.885,0-7.5-3.149-14.091-10.776-14.091-7.668,0-10.777,6.59-10.777,14.091,0,7.544,3.109,13.885,10.777,13.885M54.926,191.3c-3.9,0-5.14-3.73-5.14-9.658,0-5.678,1.285-9.906,5.14-9.906s5.139,4.228,5.139,9.906c0,5.928-1.284,9.658-5.139,9.658m0,4.227c7.626,0,10.776-6.341,10.776-13.885,0-7.5-3.15-14.091-10.776-14.091-7.667,0-10.776,6.59-10.776,14.091,0,7.544,3.109,13.885,10.776,13.885m-14.3-27.6H22.058v4.393H32.5l-6.674,9.118c4.891.165,9.45,1.782,9.45,5.347,0,2.819-1.905,4.518-5.139,4.518a13.36,13.36,0,0,1-8.082-2.9v5.139a18.458,18.458,0,0,0,8.207,1.989c6.506,0,10.4-3.855,10.4-8.786,0-5.472-4.518-7.5-8.124-8.207l8.082-10.238Z" transform="translate(-8.793 -66.786)" fill="#fff"/>
    <path id="Path_673" data-name="Path 673" d="M131,135.668a12.732,12.732,0,0,0,4.311.787c5.1,0,7.461-3.9,9.284-8.579l7.709-19.688h-5.264L141.9,122.571l-5.844-14.382h-5.471l8.87,19.357c-1.244,3.44-2.653,4.848-4.56,4.848a9.315,9.315,0,0,1-3.9-.953Zm-8.661-13.677a5.748,5.748,0,0,1-4.766,2.155c-2.985,0-5.222-2.322-5.222-6.134,0-4.145,2.155-6.259,5.181-6.259a6.83,6.83,0,0,1,4.807,1.823ZM108.99,134.217a13.927,13.927,0,0,0,8.082,2.238c6.506,0,10.4-3.522,10.4-9.7V108.188h-5.1v1.866a8.419,8.419,0,0,0-5.844-2.28c-5.72,0-9.368,4.352-9.368,10.2,0,5.6,3.44,10.155,9.326,10.155a7.334,7.334,0,0,0,6.051-2.736v1.741c0,3.4-2.113,5.263-5.678,5.263a13.658,13.658,0,0,1-7.874-2.611Zm-17.533-6.506H96.6V114.447a5.55,5.55,0,0,1,4.144-1.989,11.213,11.213,0,0,1,5.056,1.284V108.52a8.723,8.723,0,0,0-3.606-.746,6.352,6.352,0,0,0-5.595,3.482v-3.068h-5.14ZM72.723,116.52c0-3.026,2.072-4.891,5.222-4.891,2.694,0,4.559,1.7,4.352,4.891Zm13.967,2.9a16.091,16.091,0,0,0,.249-2.984c0-4.269-2.777-8.662-8.953-8.662-6.259,0-10.444,3.979-10.444,9.907,0,6.091,3.315,10.445,10.735,10.445a18.885,18.885,0,0,0,8.5-2.031v-4.311a18.406,18.406,0,0,1-7.833,2.238c-3.814,0-5.886-2.03-6.134-4.6Zm-42.233,8.29H49.6v-14.3a6.651,6.651,0,0,1,4.56-1.657c2.694,0,4.352,1.161,4.352,3.564v12.393h5.139V115.359c0-4.6-2.778-7.585-7.627-7.585a9.224,9.224,0,0,0-6.424,2.362v-1.948H44.458ZM25.723,116.52c0-3.026,2.072-4.891,5.222-4.891,2.694,0,4.56,1.7,4.352,4.891Zm13.968,2.9a16.1,16.1,0,0,0,.248-2.984c0-4.269-2.776-8.662-8.952-8.662-6.259,0-10.444,3.979-10.444,9.907,0,6.091,3.315,10.445,10.735,10.445a18.878,18.878,0,0,0,8.5-2.031v-4.311a18.4,18.4,0,0,1-7.833,2.238c-3.814,0-5.885-2.03-6.134-4.6Z" transform="translate(-8.189 -42.96)" fill="#fff"/>
    <path id="Path_674" data-name="Path 674" d="M270.338,251.571h3.28l1.517-8.671a4.247,4.247,0,0,1,2.819-1.3,5.875,5.875,0,0,1,2.982.84l.6-3.414a5.686,5.686,0,0,0-2.358-.489,4.592,4.592,0,0,0-3.686,2.277l.381-2.006h-3.28Zm-6.449-3.929a4.1,4.1,0,0,1-3.143,1.652c-1.87,0-2.873-1.273-2.873-3.143,0-2.52,1.138-5.04,4.282-5.04a2.937,2.937,0,0,1,2.6,1.491Zm4.824-8.835h-3.253l-.271,1.491a4.593,4.593,0,0,0-3.768-1.762c-4.145,0-6.909,3.28-6.909,7.967a4.957,4.957,0,0,0,5.013,5.286,5.1,5.1,0,0,0,3.956-1.844l-.271,1.627h3.251Zm-21.546,12.764h3.306l3.308-18.7-3.362.353Zm-11.732-5.42c0-3.008,1.6-5.013,4.038-5.013,1.708,0,2.656,1.193,2.656,3.035,0,2.954-1.6,5.068-4.093,5.068-1.68,0-2.6-1.247-2.6-3.09m-3.386.352c0,3.145,2.14,5.34,5.663,5.34,4.769,0,7.778-3.225,7.778-7.861,0-3.2-2.143-5.447-5.692-5.447-4.77,0-7.749,3.334-7.749,7.967m-13.334,4.39a10.538,10.538,0,0,0,4.579.95c3.522,0,6.07-1.221,6.07-4.447,0-1.652-1.193-2.6-2.764-3.142l-1.9-.679c-.7-.244-1.38-.622-1.38-1.273,0-1.111,1.218-1.328,2.222-1.328a7.746,7.746,0,0,1,4.39,1.464l.542-3.062a13.317,13.317,0,0,0-4.634-.841c-3.929,0-6.017,1.626-6.017,4.174,0,1.87,1.707,2.98,3.225,3.5l1.735.6c.65.242,1.11.622,1.11,1.218,0,1.167-1.326,1.383-2.385,1.383a6.88,6.88,0,0,1-4.254-1.49Z" transform="translate(-87.182 -92.825)" fill="#fff"/>
  </g>
</svg>
