<?xml version="1.0" encoding="utf-8"?>
<!-- Generator: Adobe Illustrator 27.5.0, SVG Export Plug-In . SVG Version: 6.00 Build 0)  -->
<svg version="1.1" xmlns="http://www.w3.org/2000/svg" xmlns:xlink="http://www.w3.org/1999/xlink" x="0px" y="0px"
	 viewBox="0 0 500 500" style="enable-background:new 0 0 500 500;" xml:space="preserve">
<g id="BACKGROUND">
	<rect style="fill:#F0DBFF;" width="500" height="500"/>
</g>
<g id="OBJECTS">
	<g>
		<ellipse style="fill:#8D6CBA;" cx="251" cy="452" rx="185.5" ry="13.25"/>
		<g>
			<g>
				
					<path style="fill:#FFFFFF;stroke:#2C223B;stroke-width:3;stroke-linecap:round;stroke-linejoin:round;stroke-miterlimit:10;" d="
					M243.675,267.831c-0.462-13.291,1.999-26.676,8.015-40.173c3.776,0.895,7.552,1.789,11.376,3.134
					c-5.117,12.195-7.474,25.538-6.845,38.748C252.211,270.068,248.104,269.845,243.675,267.831z"/>
				<path style="fill:none;stroke:#2C223B;stroke-width:3;stroke-linecap:round;stroke-linejoin:round;stroke-miterlimit:10;" d="
					M247.223,240.571c3.075,2.116,7.021,2.922,10.679,2.18"/>
				<path style="fill:none;stroke:#2C223B;stroke-width:3;stroke-linecap:round;stroke-linejoin:round;stroke-miterlimit:10;" d="
					M245.075,255.435c3.034,2.051,7.038,2.594,10.508,1.425"/>
			</g>
			<g>
				
					<path style="fill:#FFFFFF;stroke:#2C223B;stroke-width:3;stroke-linecap:round;stroke-linejoin:round;stroke-miterlimit:10;" d="
					M250.277,227.868c-7.16,4.666-15.749,7.106-24.293,6.901c-7.271-0.175-15.095-2.689-18.987-8.834
					c-2.782-4.392-3.089-10.076-1.511-15.029c1.578-4.954,4.881-9.223,8.851-13.325c2.714,1.1,5.427,2.2,8.471,4.008
					c-2.677,2.61-5.391,5.351-6.805,8.813c-1.413,3.462-1.214,7.854,1.46,10.467c2.082,2.034,5.172,2.604,8.077,2.779
					c8.139,0.492,16.409-1.396,23.528-5.372C249.534,221.084,249.999,223.893,250.277,227.868z"/>
				
					<path style="fill:#FFFFFF;stroke:#2C223B;stroke-width:3;stroke-linecap:round;stroke-linejoin:round;stroke-miterlimit:10;" d="
					M219.426,173.694c-5.923,4.932-11.183,11.792-10.817,19.491c0.422,8.876,8.456,15.9,17.059,18.126
					c8.603,2.226,17.428,1.626,26.742,0.069c0.338-2.478,1.176-7.101,1.337-10.14c-13.592,2.093-28.211-0.611-30.42-7.874
					c-0.774-2.544-0.185-5.347,1.029-7.713c1.214-2.366,3.009-4.375,4.784-6.355C227.005,177.481,224.87,175.666,219.426,173.694z"
					/>
				
					<path style="fill:#FFFFFF;stroke:#2C223B;stroke-width:3;stroke-linecap:round;stroke-linejoin:round;stroke-miterlimit:10;" d="
					M223.764,154.537c-5.987,4.309-7.611,13.12-4.81,19.944c2.801,6.824,9.224,11.68,16.193,14.098
					c6.969,2.418,14.491,2.682,22.366,1.787c0.788-2.59,2.088-6.848,2.664-10.771c-5.326-0.234-24.519,0.165-29.133-7.748
					c-2.503-4.292-0.449-11.2,2.83-14.933C230.79,156.402,227.706,155.891,223.764,154.537z"/>
				
					<path style="fill:#FFFFFF;stroke:#2C223B;stroke-width:3;stroke-linecap:round;stroke-linejoin:round;stroke-miterlimit:10;" d="
					M266.119,173.803c-11.177-3.115-21.886-7.907-33.398-14.57c-2.352,0.836-4.788,1.684-7.277,1.498
					c-2.489-0.186-5.059-1.695-5.671-4.115c-0.606-2.399,0.938-4.961,3.095-6.173c2.157-1.213,4.766-1.32,7.227-1.06
					c0.205-2.441,0.437-4.97,1.65-7.097c1.214-2.128,3.705-3.736,6.078-3.128c2.155,0.553,3.557,2.762,3.858,4.966
					c0.301,2.204-0.273,4.424-0.677,6.46c8.656,6.445,18.326,11.524,28.545,14.992C268.543,168.173,267.536,170.77,266.119,173.803z
					"/>
				
					<path style="fill:#FFFFFF;stroke:#2C223B;stroke-width:3;stroke-linecap:round;stroke-linejoin:round;stroke-miterlimit:10;" d="
					M266.814,166.471c-10.057,17.91-16.87,37.634-19.993,58.889c-0.587,3.994,2.229,7.805,6.249,8.178
					c0.153,0.014,0.307,0.026,0.464,0.036c3.217,0.205,6.184-1.759,7.249-4.801l20.461-58.429
					C276.989,168.603,272.734,166.862,266.814,166.471z"/>
				
					<path style="fill:#FFFFFF;stroke:#2C223B;stroke-width:3;stroke-linecap:round;stroke-linejoin:round;stroke-miterlimit:10;" d="
					M306.336,218.069c1.841-0.471,6.765-0.611,8.655-0.411c4.53,9.39,1.297,21.031-6.341,27.666
					c-7.639,6.636-18.899,8.359-28.567,5.374c-9.668-2.985-17.694-10.272-22.842-19.234c-0.508-3.13,1.552-6.477,5.565-7.009
					c4.158,7.028,11.041,12.396,18.871,14.716c6.653,1.971,14.292,1.634,19.99-2.326
					C307.365,232.886,307.361,224.831,306.336,218.069z"/>
				
					<path style="fill:#FFFFFF;stroke:#2C223B;stroke-width:3;stroke-linecap:round;stroke-linejoin:round;stroke-miterlimit:10;" d="
					M312.247,201.344c1.333,6.658-0.83,11.452-6.852,13.117c-6.022,1.665-12.451,0.597-18.495-0.986
					c-6.587-1.726-13.017-4.053-19.799-7.103c-2.94,0.154-7.632,5.579-2.52,10.075c5.902,5.19,26.047,11.706,39.484,9.861
					c6.876-0.944,13.441-3.544,17.472-9.194c4.031-5.649,4.741-14.872,1.455-20.985
					C321.126,197.909,314.153,200.364,312.247,201.344z"/>
				
					<path style="fill:#FFFFFF;stroke:#2C223B;stroke-width:3;stroke-linecap:round;stroke-linejoin:round;stroke-miterlimit:10;" d="
					M323.201,182.125c2.803,3.752,2.636,9.217,0.264,13.256c-2.372,4.039-6.617,6.732-11.117,8.033
					c-7.49,2.166-28.632,2.183-41.138-6.158c-1.278-2.197-2.034-8.16,3.859-9.409c7.655,3.569,15.089,5.872,23.283,6.477
					c18.3,1.352,18.551-10.715,15.28-14.109C316.902,179.232,320.956,179.12,323.201,182.125z"/>
				
					<path style="fill:#FFFFFF;stroke:#2C223B;stroke-width:3;stroke-linecap:round;stroke-linejoin:round;stroke-miterlimit:10;" d="
					M291.88,168.936c6.337,1.474,15.497,2.009,22.355,0.621c1.043-1.256,2.104-2.529,3.45-3.453c1.346-0.924,3.038-1.469,4.628-1.1
					c2.233,0.518,3.775,2.817,3.841,5.108c0.066,2.291-1.126,4.485-2.861,6.401c1.803,0.802,3.126,2.633,3.245,4.603
					c0.12,1.97-1.009,3.98-2.787,4.837c-2.081,1.003-4.654,0.368-6.523-0.99c-1.869-1.358-3.182-3.329-4.455-5.258
					c-5.753,2.523-26.135,1.271-35.833-1.636l1.901-7.317L291.88,168.936z"/>
			</g>
			<g>
				
					<path style="fill:#C8B5EB;stroke:#2C223B;stroke-width:3;stroke-linecap:round;stroke-linejoin:round;stroke-miterlimit:10;" d="
					M265.269,146.313c0.813-7.49,1.057-15.029,0.729-22.549c4.087-0.429,8.311,0.217,11.744,2.57c0,7.764-1.612,15.526-4.73,22.783
					C270.126,148.53,267.24,147.941,265.269,146.313z"/>
				<g>
					<defs>
						<path id="SVGID_1_" d="M263.939,117.378c-24.285-16.415-23.683-56.951,16.057-70.838c14.548-5.084,30.839-4.138,45.313,1.153
							c14.077,5.146,26.897,14.628,34.193,27.72c7.296,13.092,8.433,29.922,1.203,43.051c-7.23,13.129-23.33,21.329-37.873,17.703"
							/>
					</defs>
					<use xlink:href="#SVGID_1_"  style="overflow:visible;fill:#FFFFFF;"/>
					<clipPath id="SVGID_00000075161760268628626760000009995638307127986818_">
						<use xlink:href="#SVGID_1_"  style="overflow:visible;"/>
					</clipPath>
					<path style="clip-path:url(#SVGID_00000075161760268628626760000009995638307127986818_);fill:#E6D7FC;" d="M368.879,96.817
						c-3.784,12.863-14.5,23.005-26.921,28.053c-12.421,5.049-26.356,5.432-39.582,3.23c-20.726-3.45-40.59-13.372-54.603-29.029
						c-0.333,8.101,3.631,15.967,9.367,21.696c5.736,5.73,13.107,9.55,20.652,12.516c12.102,4.757,24.979,7.538,37.966,8.197
						c8.696,0.441,17.539-0.082,25.838-2.716c8.299-2.634,16.054-7.509,21.133-14.582
						C367.809,117.111,369.945,107.729,368.879,96.817z"/>
					
						<use xlink:href="#SVGID_1_"  style="overflow:visible;fill:none;stroke:#2C223B;stroke-width:3;stroke-linecap:round;stroke-linejoin:round;stroke-miterlimit:10;"/>
				</g>
				<g>
					
						<path style="fill:#FFFFFF;stroke:#2C223B;stroke-width:3;stroke-linecap:round;stroke-linejoin:round;stroke-miterlimit:10;" d="
						M324.315,136.321c-0.096-0.125-0.193-0.248-0.292-0.37c-3.222-3.987-9.498-3.012-11.47,1.72
						c-3.252,7.803-7.332,15.255-12.454,22.209c0.045-2.952-1.459-5.876-3.802-7.391c-2.343-1.516-5.437-1.566-7.821-0.127
						c-0.648-2.488-2.663-4.498-5.009-4.996c-2.346-0.498-4.915,0.538-6.385,2.577c-0.429-2.287-1.951-4.301-3.938-5.211
						c-1.987-0.91-4.384-0.691-6.202,0.566c-0.913-4.222-6.105-6.215-9.683-4.259c-3.579,1.957-5.287,6.765-4.732,11.06
						c0.555,4.294,2.988,8.07,5.9,11.051c9.804,10.035,25.159,12.014,37.934,7.293c11.207-4.142,20.564-12.748,28.038-23.379
						C326.67,143.834,326.72,139.452,324.315,136.321z"/>
					<path style="fill:none;stroke:#2C223B;stroke-width:3;stroke-linecap:round;stroke-linejoin:round;stroke-miterlimit:10;" d="
						M278.09,148.841c-1.653,1.34-2.608,3.388-2.661,5.515"/>
					<path style="fill:none;stroke:#2C223B;stroke-width:3;stroke-linecap:round;stroke-linejoin:round;stroke-miterlimit:10;" d="
						M267.659,144.872c-2.098,1.084-4.305,3.155-4.628,5.509"/>
					<path style="fill:none;stroke:#2C223B;stroke-width:3;stroke-linecap:round;stroke-linejoin:round;stroke-miterlimit:10;" d="
						M289.304,151.906c-1.297,1.235-1.782,3.738-1.467,5.501"/>
				</g>
				<g>
					
						<path style="fill:#FFFFFF;stroke:#2C223B;stroke-width:3;stroke-linecap:round;stroke-linejoin:round;stroke-miterlimit:10;" d="
						M260.681,108.221c-1.711,3.1-3.446,6.261-4.154,9.73c-0.708,3.469-0.244,7.359,2.059,10.05c2.302,2.69,6.7,3.663,9.917,1.969
						c0.054,3.126,2.111,6.128,5.007,7.307c2.896,1.179,6.464,0.468,10.04-1.137c0.569,2.549,2.503,4.75,4.957,5.643
						c2.454,0.893,5.35,0.449,7.424-1.137c1.75,3.111,5.695,4.569,9.223,4.028c3.528-0.541,6.616-2.78,8.894-5.528
						c2.278-2.748,3.853-5.997,5.406-9.211"/>
					<path style="fill:none;stroke:#2C223B;stroke-width:3;stroke-linecap:round;stroke-linejoin:round;stroke-miterlimit:10;" d="
						M269.345,122.331c-1.203,3.185-1.355,6.758-0.425,10.033"/>
					<path style="fill:none;stroke:#2C223B;stroke-width:3;stroke-linecap:round;stroke-linejoin:round;stroke-miterlimit:10;" d="
						M284.235,128.303c-1.192,3.059-1.195,6.565-0.008,9.626"/>
					<path style="fill:none;stroke:#2C223B;stroke-width:3;stroke-linecap:round;stroke-linejoin:round;stroke-miterlimit:10;" d="
						M297.35,134.822c-0.574,1.943-0.914,3.954-1.009,5.978"/>
				</g>
				<g>
					<g>
						<path style="fill:#E6D7FC;" d="M283.542,65.203c-8.157-1.259-16.667,3.43-20.695,10.634
							c-4.028,7.204-3.762,16.408-0.086,23.798L283.542,65.203z"/>
						
							<path style="fill:#8978AD;stroke:#2C223B;stroke-width:3;stroke-linecap:round;stroke-linejoin:round;stroke-miterlimit:10;" d="
							M274.964,106.601c5.651,1.494,11.518-0.949,14.824-5.829c4.656-6.873,6.595-15.671,4.926-23.856
							c-0.107-0.527-0.238-1.106-0.402-1.715c-1.922-7.138-10.047-10.361-16.299-6.541c-3.647,2.229-6.854,5.202-9.333,8.712
							c-2.667,3.775-4.482,8.157-5.22,13.188c-0.83,5.657,1.721,11.393,6.683,14.114
							C271.654,105.503,273.272,106.154,274.964,106.601z"/>
						<path style="fill:none;stroke:#2C223B;stroke-width:3;stroke-linecap:round;stroke-linejoin:round;stroke-miterlimit:10;" d="
							M267.983,69.895c2.947-3.377,7.43-5.357,11.91-5.263c4.481,0.095,8.876,2.263,11.678,5.761"/>
						<path style="fill:none;stroke:#2C223B;stroke-width:3;stroke-linecap:round;stroke-linejoin:round;stroke-miterlimit:10;" d="
							M259.344,88.957c0.097,6.983,4.765,13.684,11.281,16.196"/>
					</g>
					<g>
						<path style="fill:#E6D7FC;" d="M324.949,81.959c-7.844,0.646-15.09,6.109-17.869,13.472c-2.779,7.363-0.95,16.252,4.511,21.92
							L324.949,81.959z"/>
						
							<path style="fill:#8978AD;stroke:#2C223B;stroke-width:3;stroke-linecap:round;stroke-linejoin:round;stroke-miterlimit:10;" d="
							M335.929,121.514c3.758-0.852,6.779-3.391,8.106-6.77c1.745-4.439,1.994-9.456,1.433-14.208
							c-0.565-4.785-1.941-9.635-5.108-13.443c-0.032-0.038-0.064-0.076-0.096-0.114c-5.025-5.924-14.672-5.999-20.091-0.384
							c-2.961,3.068-5.335,6.628-6.946,10.469c-1.994,4.755-2.811,9.929-2.38,15.514c0.272,3.524,2.671,6.657,6.241,7.865
							C323.122,122.486,329.753,122.915,335.929,121.514z"/>
						<path style="fill:none;stroke:#2C223B;stroke-width:3;stroke-linecap:round;stroke-linejoin:round;stroke-miterlimit:10;" d="
							M313.409,86.188c3.274-2.8,7.466-4.507,11.764-4.793c4.298-0.285,8.679,0.853,12.295,3.196"/>
						<path style="fill:none;stroke:#2C223B;stroke-width:3;stroke-linecap:round;stroke-linejoin:round;stroke-miterlimit:10;" d="
							M306.567,109.873c0.103,2.984,1.901,5.654,4.144,7.375c2.243,1.722,4.904,2.652,7.519,3.558"/>
					</g>
					
						<path style="fill:#8978AD;stroke:#2C223B;stroke-width:3;stroke-linecap:round;stroke-linejoin:round;stroke-miterlimit:10;" d="
						M292.028,108.312c-2.462,0.348-4.857,1.168-7.016,2.402c-1.161,0.663-2.295,1.491-2.913,2.677
						c-0.908,1.743-0.409,4.097,1.129,5.32c1.538,1.223,3.944,1.181,5.878-0.159c0.289,1.759,1.786,3.251,3.546,3.534
						c1.76,0.283,3.65-0.664,4.476-2.243c0.753-1.439,0.629-3.188,0.188-4.751C296.613,112.596,295.138,110.322,292.028,108.312z"/>
				</g>
			</g>
			<path style="fill:#FFFFFF;stroke:#2C223B;stroke-width:3;stroke-linecap:round;stroke-linejoin:round;stroke-miterlimit:10;" d="
				M297.33,276.75c-0.67-5.98-4.92-11.42-10.56-13.5c-11.43-4.23-23.53,4.95-35.71,4.66c-13.77-0.32-26.27-12.68-39.63-9.34
				c-6.6,1.66-11.98,7.41-13.2,14.1c-1.22,6.7,1.8,13.97,7.4,17.84c3.36,2.32,7.54,3.52,10.28,6.54c4.16,4.6,4.14,12.52,9.45,15.71
				c5.93,3.56,13.29-1.51,20.21-1.48c4.66,0.02,8.94,2.41,13.27,4.15c4.33,1.74,9.5,2.81,13.49,0.38c4.27-2.6,5.52-8.08,7.17-12.8
				c1.66-4.73,6.03-7.86,10.5-10.77C295.04,288.97,297.99,282.73,297.33,276.75z M236.9,290.41c-0.02,0.02-0.05,0.03-0.08,0.04
				c-2.77,1.18-5.93,1.05-8.92,0.62c-3.75-0.55-7.43-1.58-10.93-3.06c-4.01-1.7-8.14-4.23-8.17-9.52c0-1.1,0.2-2.19,0.61-3.21
				c2.18-5.48,8.2-7.57,13.55-6.72c3.96,0.63,7.56,2.72,10.58,5.34c2.1,1.82,3.94,3.91,5.71,6.07
				C242.04,283.39,240.96,288.63,236.9,290.41z M283.45,287.53c-3.8,4.3-10.04,6.49-15.85,5.57c-4.78-0.76-9.12-3.59-10.81-8.22
				c-0.66-1.8-0.16-3.8,1.27-5.13c2.41-2.25,4.92-4.4,7.81-6.03c3.69-2.08,8.12-3.26,12.3-2.36c4.18,0.91,7.92,4.23,8.3,8.31
				C286.74,282.52,285.39,285.34,283.45,287.53z"/>
			<g>
				<g>
					
						<path style="fill:#FFFFFF;stroke:#2C223B;stroke-width:3;stroke-linecap:round;stroke-linejoin:round;stroke-miterlimit:10;" d="
						M326.908,441.156c0.513-0.627,1.071-1.218,1.709-1.78c1.479-1.301,3.576-1.543,5.382-0.755
						c1.639,0.715,3.449,1.106,5.212,1.477c3.142,0.661,6.431,1.391,8.636,3.906c1.259,1.436,1.889,3.39,1.35,5.222
						c-0.882,2.999-4.172,3.898-7.066,4.211c-4.623,0.498-9.325,0.257-13.872-0.714
						C327.993,449.161,327.728,445.598,326.908,441.156z"/>
					<g>
						
							<path style="fill:#FFFFFF;stroke:#2C223B;stroke-width:3;stroke-linecap:round;stroke-linejoin:round;stroke-miterlimit:10;" d="
							M276.806,453.934c-6.686,0-9.567-9.057-5.631-14.461c5.589-7.672,13.953-13.36,23.25-15.356
							c13.501-2.898,22.017,4.431,37.954,13.997c-1.892,4.688-4.642,9.027-9.53,14.827
							C306.256,454.107,289.402,453.934,276.806,453.934z"/>
						<path style="fill:none;stroke:#2C223B;stroke-width:3;stroke-linecap:round;stroke-linejoin:round;stroke-miterlimit:10;" d="
							M314.56,427.45c-7.558-2.535-14.458-1.485-20.052,4.117c-5.594,5.603-7.551,14.44-4.832,21.822"/>
					</g>
					
						<path style="fill:#FFFFFF;stroke:#2C223B;stroke-width:3;stroke-linecap:round;stroke-linejoin:round;stroke-miterlimit:10;" d="
						M318.762,439.523c1.928-0.566,3.899-0.985,6.094-1.115c2.118-0.125,4.172,0.565,5.918,1.771
						c1.655,1.143,3.766,1.743,5.698,2.451c2.986,1.095,6.226,3.221,5.82,6.635c-0.126,1.063-0.638,2.054-1.366,2.838
						c-1.75,1.884-4.247,2.501-6.69,2.78c-4.77,0.545-9.669-0.079-14.15-1.802c-0.852-0.327-1.752-0.75-2.175-1.559
						c-0.368-0.703-0.294-1.546-0.21-2.335C318.036,446.036,318.37,442.883,318.762,439.523z"/>
					
						<path style="fill:#FFFFFF;stroke:#2C223B;stroke-width:3;stroke-linecap:round;stroke-linejoin:round;stroke-miterlimit:10;" d="
						M307.651,452.792c3.451,1.232,6.972,2.478,10.634,2.582c4.464,0.127,9.272-1.721,11.001-6.176
						c0.895-2.308,0.585-4.981-1.039-6.849c-3-3.452-7.973-1.965-12.288-3.134c-1.354-0.367-2.808-0.153-3.945,0.669
						c-1.639,1.184-2.984,2.778-3.85,4.606C306.923,447.107,306.675,450.18,307.651,452.792z"/>
				</g>
				
					<path style="fill:#FFFFFF;stroke:#2C223B;stroke-width:3;stroke-linecap:round;stroke-linejoin:round;stroke-miterlimit:10;" d="
					M301.989,352.98c-1.277,2.167-2.578,4.397-3,6.877c-0.422,2.48,0.221,5.304,2.229,6.82c2.42,1.827,6.041,1.148,8.418-0.735
					c2.376-1.883,3.799-4.689,5.15-7.404c4.001-1.07,7.557-1.535,10.438-3.425c2.881-1.89,4.841-5.661,3.539-8.851
					c-1.013-2.481-3.714-3.941-6.376-4.239c-2.663-0.299-5.33,0.358-7.929,1.009c-8.748-11.245-14.781-21.278-19.939-31.742
					c1.37-3.276,2.659-5.088,3.376-7.152c0.717-2.064,0.801-4.44-0.235-6.365c-1.786-3.321-6.513-4.222-9.913-2.591
					c-3.4,1.63-5.554,5.147-8.059,10.305c-2.135-0.94-4.307-1.892-6.621-2.192c-2.314-0.3-4.831,0.135-6.573,1.687
					c-2.16,1.926-2.677,5.298-1.62,7.992c1.057,2.694,3.459,4.71,6.144,5.789c2.685,1.079,5.639,1.31,9.771,1.404
					C286.923,331.441,293.938,342.233,301.989,352.98z"/>
				
					<path style="fill:#FFFFFF;stroke:#2C223B;stroke-width:3;stroke-linecap:round;stroke-linejoin:round;stroke-miterlimit:10;" d="
					M305.039,414.321c0.817-13.938,3.739-21.69,8.03-34.976c4.49-1.808,6.901-1.967,9.183-2.675s4.455-2.026,5.746-4.036
					c2.406-3.747,0.923-9.205-2.685-11.815c-3.608-2.61-8.715-2.559-14.199-0.263c-1.122-3.493-3.401-6.775-6.74-8.297
					c-3.339-1.521-7.775-0.849-9.952,2.104c-1.689,2.291-1.76,5.464-0.885,8.173c0.875,2.708,2.574,5.062,4.101,8.895
					c-4.803,14.603-7.689,25.672-11.307,42.595c-3.256-0.262-6.667,1.552-7.993,4.538c-1.325,2.986-0.225,6.93,2.609,8.555
					c1.94,1.113,4.369,1.09,6.51,0.444c2.141-0.646,4.061-1.857,6.972-2.654c2.024,1.123,4.206,2.034,6.506,2.289
					s4.739-0.198,6.592-1.585c1.853-1.387,3.008-3.785,2.591-6.061C309.702,417.275,307.529,415.353,305.039,414.321z"/>
			</g>
			<g>
				
					<path style="fill:#FFFFFF;stroke:#2C223B;stroke-width:3;stroke-linecap:round;stroke-linejoin:round;stroke-miterlimit:10;" d="
					M202.356,349.06c1.503,2.018,3.035,4.095,3.721,6.515c0.686,2.421,0.35,5.297-1.484,7.02c-2.21,2.077-5.883,1.79-8.448,0.173
					c-2.565-1.617-4.281-4.254-5.916-6.809c-4.092-0.634-7.678-0.715-10.745-2.284c-3.067-1.57-5.421-5.109-4.469-8.42
					c0.741-2.575,3.269-4.316,5.884-4.899c2.615-0.583,5.338-0.216,7.992,0.152c7.49-12.12,12.411-22.742,16.415-33.699
					c-1.713-3.111-3.19-4.773-4.124-6.748c-0.934-1.975-1.273-4.329-0.45-6.353c1.42-3.494,6.022-4.897,9.577-3.641
					c3.556,1.256,6.075,4.521,9.119,9.38c2.022-1.164,4.079-2.343,6.347-2.89c2.268-0.547,4.818-0.385,6.716,0.972
					c2.354,1.683,3.23,4.98,2.469,7.771c-0.761,2.792-2.933,5.054-5.486,6.415c-2.553,1.361-5.466,1.908-9.563,2.446
					C215.022,326.027,209.206,337.511,202.356,349.06z"/>
				
					<path style="fill:#FFFFFF;stroke:#2C223B;stroke-width:3;stroke-linecap:round;stroke-linejoin:round;stroke-miterlimit:10;" d="
					M148.112,409.93c9.623-10.116,17.06-24.493,23.833-36.703c-1.746-4.514-3.277-6.384-4.318-8.535
					c-1.041-2.151-1.563-4.638-0.976-6.954c1.094-4.317,6.093-6.962,10.464-6.109c4.371,0.853,7.821,4.618,9.889,10.191
					c3.318-1.566,7.272-2.143,10.664-0.744c3.391,1.399,5.931,5.099,5.26,8.706c-0.52,2.798-2.789,5.018-5.365,6.229
					c-2.576,1.211-5.455,1.577-9.298,3.08c-7.386,13.482-16.08,26.248-26.123,39.872c3.623,1.971,5.521,6.645,4.298,10.584
					c-1.223,3.939-5.435,6.715-9.537,6.287c-4.102-0.428-7.649-4.015-8.032-8.122c-3.371,3.141-9.142,3.102-12.618,0.077
					c-3.476-3.025-4.365-8.544-2.212-12.619S142.172,409.28,148.112,409.93z"/>
				<g>
					<g>
						<defs>
							<path id="SVGID_00000129163514555108658950000001467241635183314346_" d="M106.665,399.907
								c5.824,14.729,14.047,28.506,24.246,40.623c4.888,5.808,12.015,11.741,19.231,9.384c4.158-1.358,7.072-5.317,8.214-9.539
								c1.141-4.222,0.766-8.7,0.103-13.023c-1.602-10.443-4.841-20.633-9.564-30.083c-3.149-6.301-7.483-12.706-14.178-14.896
								c-4.316-1.413-9.097-0.835-13.333,0.801C114.206,385.948,107.991,392.452,106.665,399.907z"/>
						</defs>
						<use xlink:href="#SVGID_00000129163514555108658950000001467241635183314346_"  style="overflow:visible;fill:#FFFFFF;"/>
						<clipPath id="SVGID_00000075136760352594463750000002445258224900067237_">
							<use xlink:href="#SVGID_00000129163514555108658950000001467241635183314346_"  style="overflow:visible;"/>
						</clipPath>
						<path style="clip-path:url(#SVGID_00000075136760352594463750000002445258224900067237_);fill:#E6D7FC;" d="M131.493,387.109
							c11.002,13.98,18.828,30.446,22.722,47.805c1.219,5.436,1.911,11.634-1.376,16.132c-3.245,4.44-9.612,5.719-14.91,4.247
							c-5.299-1.471-9.684-5.179-13.454-9.183c-12.353-13.118-19.804-30.142-24.806-47.453
							C107.832,391.723,117.186,386.197,131.493,387.109z"/>
						
							<use xlink:href="#SVGID_00000129163514555108658950000001467241635183314346_"  style="overflow:visible;fill:none;stroke:#2C223B;stroke-width:3;stroke-linecap:round;stroke-linejoin:round;stroke-miterlimit:10;"/>
					</g>
					<path style="fill:none;stroke:#2C223B;stroke-width:3;stroke-linecap:round;stroke-linejoin:round;stroke-miterlimit:10;" d="
						M153.634,408.357c1.954,7.094-3.487,14.701-8.167,17.454c-5.446,3.203-15.913,4.801-21.237,4.367"/>
					
						<path style="fill:#FFFFFF;stroke:#2C223B;stroke-width:3;stroke-linecap:round;stroke-linejoin:round;stroke-miterlimit:10;" d="
						M115.231,393.84c-3.17-2.142-6.744-3.683-10.478-4.517c-1.095-0.245-2.314-0.411-3.278,0.164
						c-1.165,0.694-1.527,2.215-1.535,3.571c-0.019,3.541,2.099,7.332,5.557,8.095c2.262,0.499,4.653-0.373,6.488-1.787
						C113.82,397.952,115.199,396.042,115.231,393.84z"/>
					
						<path style="fill:#FFFFFF;stroke:#2C223B;stroke-width:3;stroke-linecap:round;stroke-linejoin:round;stroke-miterlimit:10;" d="
						M123.466,390.615c-3.81-2.631-7.63-5.268-11.724-7.431c-1.673-0.884-3.928-1.615-5.281-0.292
						c-0.91,0.889-0.948,2.337-0.737,3.591c0.363,2.163,1.292,4.228,2.668,5.935c1.204,1.493,2.831,2.749,4.726,3.05
						c1.921,0.306,3.892-0.411,5.477-1.54C120.179,392.801,121.441,391.286,123.466,390.615z"/>
					
						<path style="fill:#FFFFFF;stroke:#2C223B;stroke-width:3;stroke-linecap:round;stroke-linejoin:round;stroke-miterlimit:10;" d="
						M132.054,386.298c-2.94-3.017-5.88-6.034-8.82-9.051c-1.203-1.235-2.566-2.548-4.286-2.676
						c-1.506-0.113-2.974,0.773-3.829,2.018c-0.856,1.245-1.167,2.796-1.179,4.306c-0.023,2.986,1.12,6.007,3.276,8.073
						c2.156,2.066,5.333,3.084,8.25,2.443C128.382,390.77,130.902,388.399,132.054,386.298z"/>
					
						<path style="fill:#FFFFFF;stroke:#2C223B;stroke-width:3;stroke-linecap:round;stroke-linejoin:round;stroke-miterlimit:10;" d="
						M142.561,387.798c-2.368-3.632-5.59-11.34-7.423-13.74c-1.596-2.089-4.213-3.639-6.793-3.136
						c-1.304,0.255-2.499,1.032-3.259,2.122c-0.959,1.374-1.197,3.125-1.196,4.801c0.001,2.811,0.617,5.663,2.071,8.069
						c1.454,2.406,3.795,4.33,6.567,4.873C135.795,391.094,139.172,389.905,142.561,387.798z"/>
				</g>
			</g>
			<g>
				
					<path style="fill:#FFFFFF;stroke:#2C223B;stroke-width:3;stroke-linecap:round;stroke-linejoin:round;stroke-miterlimit:10;" d="
					M186.13,180.886c7.408-8.851,14.817-17.702,22.225-26.554c-3.847-4.969-3.64-11.299-0.068-14.736
					c1.335-1.285,3.161-2.193,5.002-1.979c2.096,0.243,3.812,1.901,4.715,3.808c0.903,1.907,1.135,4.052,2.158,7.773
					c2.041-1.021,4.188-1.954,6.465-2.106c2.277-0.152,4.729,0.608,6.1,2.432c1.599,2.127,1.333,5.287-0.198,7.464
					c-1.531,2.177-4.091,3.456-6.701,3.972c-2.611,0.517-5.303,0.354-9.148,1.019c-6.987,7.67-13.204,16.041-18.062,25.709
					c1.025,1.966,1.913,4.035,2.256,6.225c0.343,2.19,0.102,4.527-1.012,6.444c-1.114,1.917-3.184,3.338-5.401,3.351
					c-2.131,0.012-4.123-1.249-5.427-2.934c-1.304-1.685-2.009-3.754-2.61-6.488c-1.775,0.339-3.566,0.679-5.373,0.648
					c-1.807-0.031-3.656-0.462-5.111-1.534c-2.156-1.588-3.167-4.521-2.608-7.141c0.559-2.619,2.586-4.834,5.089-5.786
					C180.926,179.522,183.828,179.797,186.13,180.886z"/>
				
					<path style="fill:#FFFFFF;stroke:#2C223B;stroke-width:3;stroke-linecap:round;stroke-linejoin:round;stroke-miterlimit:10;" d="
					M178.776,186.125c-2.976-8.233-4.631-20.102-5.402-28.822c2.997-2.961,4.876-6.14,5.322-9.531
					c0.241-1.835,0.037-3.827-1.077-5.305c-1.787-2.371-5.423-2.65-8.112-1.39c-2.689,1.26-4.625,3.683-6.363,6.091
					c-2.461-1.934-5.721-3.025-8.776-2.345c-3.055,0.68-5.708,3.393-5.773,6.522c-0.061,2.911,2.028,5.523,4.572,6.938
					c2.544,1.415,5.497,1.863,7.486,3.145c0.899,9.582,2.663,19.083,4.918,30.358c-2.207,0.566-4.131,2.215-4.936,4.347
					c-0.805,2.132-0.425,4.692,1.038,6.438c1.968,2.349,5.531,2.904,8.432,1.918c2.901-0.986,5.207-3.245,7.027-5.721
					c2.927,1.52,6.552,1.915,9.536,0.509c2.984-1.406,5.307-4.862,4.444-8.045C189.747,186.19,182.6,185.02,178.776,186.125z"/>
				<g>
					
						<path style="fill:#FFFFFF;stroke:#2C223B;stroke-width:3;stroke-linecap:round;stroke-linejoin:round;stroke-miterlimit:10;" d="
						M138.042,138.439c1.585,2.923,3.361,5.791,5.752,8.102c2.391,2.311,5.467,4.042,8.782,4.299
						c3.315,0.257,6.844-1.148,8.643-3.944c7.038,2.156,13.181-0.407,15.652-5.214c1.616-3.143,1.709-6.84,1.452-10.365
						c-0.257-3.525-0.829-7.064-0.162-10.87c1.056-5.612,5.121-10.564,10.419-12.694c1.446-0.581,3.111-1.074,3.878-2.431
						c0.683-1.209,0.389-2.797-0.433-3.915c-0.822-1.119-2.081-1.837-3.37-2.355c-3.295-1.324-7.021-1.444-10.641-0.17
						c-3.644,1.283-6.022,4.644-6.657,8.454c-0.418,2.512-1.771,5.029-4.219,7.251c-7.359-7.688-12.385-17.58-14.254-28.057
						c-0.517-2.897-0.838-5.949-3.022-8.179c-1.098-1.121-2.669-1.761-4.211-1.471c-3.388,0.637-4.126,4.711-3.938,7.953
						c0.496,8.527,3.565,16.887,7.597,24.522c-9.164-8.052-18.329-16.104-27.493-24.156c-1.126-0.989-2.323-2.021-4.346-1.179
						c-0.98,0.408-1.796,1.176-2.246,2.138c-0.985,2.105-0.473,4.51,0.35,6.631c3.864,9.967,13.73,16.073,22.745,21.707
						c-7.953,0.238-15.944-0.799-23.573-3.058c-1.422-0.421-2.854-0.889-4.336-0.943c-2.283-0.084-4.786,0.958-5.05,3.877
						c-0.106,1.17,0.221,2.357,0.863,3.34c1.475,2.257,4.055,3.312,6.567,4.096c6.438,2.01,13.203,2.795,20.095,3.578
						c-6.209,2.637-12.574,4.91-19.049,6.802c-1.202,0.351-2.431,0.7-3.471,1.398c-1.04,0.698-1.879,1.822-1.898,3.074
						c-0.021,1.327,0.889,2.534,2.027,3.218c1.138,0.685,2.477,0.937,3.791,1.133c3.752,0.56,7.598,0.753,11.327,0.062
						C129.345,140.38,132.969,138.754,138.042,138.439z"/>
					<path style="fill:none;stroke:#2C223B;stroke-width:3;stroke-linecap:round;stroke-linejoin:round;stroke-miterlimit:10;" d="
						M172.507,106.141c1.188,3.658,4.808,6.387,8.653,6.522"/>
					<path style="fill:none;stroke:#2C223B;stroke-width:3;stroke-linecap:round;stroke-linejoin:round;stroke-miterlimit:10;" d="
						M167.059,114.536c-4.428,3.811-7.483,9.184-8.494,14.938c-1.011,5.754,0.03,11.846,2.894,16.938"/>
					<path style="fill:none;stroke:#2C223B;stroke-width:3;stroke-linecap:round;stroke-linejoin:round;stroke-miterlimit:10;" d="
						M178.192,121.703c-4.636,0.692-9.549-2.351-10.993-6.81"/>
					<path style="fill:none;stroke:#2C223B;stroke-width:3;stroke-linecap:round;stroke-linejoin:round;stroke-miterlimit:10;" d="
						M159.701,105.809c-2.422,2.953-6.069,4.869-9.557,4.703c-2.003,3.514-6.55,5.35-9.93,4.807
						c0.304,4.284-2.449,8.609-6.747,11.081c3.626,2.404,5.479,7.201,4.41,11.418"/>
					<path style="fill:none;stroke:#2C223B;stroke-width:3;stroke-linecap:round;stroke-linejoin:round;stroke-miterlimit:10;" d="
						M145.06,97.505c2.857,1.549,6.762,0.795,8.836-1.707"/>
					<path style="fill:none;stroke:#2C223B;stroke-width:3;stroke-linecap:round;stroke-linejoin:round;stroke-miterlimit:10;" d="
						M127.13,106.879c3.959-1.671,7.065-5.243,8.171-9.395"/>
					<path style="fill:none;stroke:#2C223B;stroke-width:3;stroke-linecap:round;stroke-linejoin:round;stroke-miterlimit:10;" d="
						M121.335,123.293c2.712-2.283,4.04-6.093,3.336-9.567"/>
					<path style="fill:none;stroke:#2C223B;stroke-width:3;stroke-linecap:round;stroke-linejoin:round;stroke-miterlimit:10;" d="
						M121.844,130.098c2.988,2.039,4.391,6.132,3.281,9.575"/>
				</g>
			</g>
			<g>
				<g>
					
						<path style="fill:#FFFFFF;stroke:#2C223B;stroke-width:3;stroke-linecap:round;stroke-linejoin:round;stroke-miterlimit:10;" d="
						M391.113,264.882c-5.11,4.059-7.636,11.12-6.617,18.613c-1.487,4.221-4.143,8.023-7.595,10.871
						c-0.893,0.737-1.888,1.479-2.254,2.578c-0.541,1.625,0.548,3.394,1.953,4.373c2.426,1.691,5.757,1.744,8.477,0.585
						s4.876-3.389,6.445-5.896s2.609-5.301,4.801-8.241c3.33,1.219,6.482,2.925,10.658,5.77c4.468,7.205,10.683,13.319,17.96,17.669
						c1.311,0.784,2.688,1.523,4.193,1.787c1.505,0.264,3.176-0.013,4.294-1.055c1.453-1.353,1.718-3.713,0.936-5.538
						c-1.542-3.6-7.096-7.799-9.535-11.852c2.233,1.098,7.747,3.708,10.186,4.197c2.439,0.489,5.116,0.295,7.198-1.068
						c2.082-1.363,3.511-3.476,3.115-6.692c1.896-0.895,3.708-3.412,3.757-5.508c0.049-2.096-1.165-4.172-3.155-5.967
						c1.448-1.914,0.541-4.851-1.301-6.39c-1.842-1.539-4.314-2.035-6.676-2.461c-4.85-0.875-9.715-1.673-14.34-1.956
						c-3.8-2.802-7.43-5.835-10.932-8.664C405.081,258.187,397.145,260.091,391.113,264.882z"/>
					<path style="fill:none;stroke:#2C223B;stroke-width:3;stroke-linecap:round;stroke-linejoin:round;stroke-miterlimit:10;" d="
						M385.059,283.81c1.856-1.379,4.421-1.742,6.587-0.933c2.166,0.809,3.865,2.765,4.362,5.023"/>
					<path style="fill:none;stroke:#2C223B;stroke-width:3;stroke-linecap:round;stroke-linejoin:round;stroke-miterlimit:10;" d="
						M390.487,295.795c-0.283-2.012-1.525-3.867-3.277-4.896c-1.752-1.029-3.978-1.208-5.872-0.475"/>
					<path style="fill:none;stroke:#2C223B;stroke-width:3;stroke-linecap:round;stroke-linejoin:round;stroke-miterlimit:10;" d="
						M426.501,296.917c-3.942-3.539-7.463-7.547-10.851-11.788c-2.202,0.085-4.359,1.046-5.894,2.627
						c-1.536,1.581-2.435,3.764-2.457,5.967"/>
					<path style="fill:none;stroke:#2C223B;stroke-width:3;stroke-linecap:round;stroke-linejoin:round;stroke-miterlimit:10;" d="
						M444.903,290.531c-8.152-2.693-15.882-6.66-22.822-11.714"/>
					<path style="fill:none;stroke:#2C223B;stroke-width:3;stroke-linecap:round;stroke-linejoin:round;stroke-miterlimit:10;" d="
						M446.301,279.873c-8.18-2.536-15.935-6.435-22.85-11.487"/>
					<path style="fill:none;stroke:#2C223B;stroke-width:3;stroke-linecap:round;stroke-linejoin:round;stroke-miterlimit:10;" d="
						M415.377,285.697c-0.133-1.76,0.493-3.565,1.687-4.865c1.195-1.3,2.94-2.076,4.705-2.092c-0.782-3.101,0.162-6.58,2.404-8.861"
						/>
					<path style="fill:none;stroke:#2C223B;stroke-width:3;stroke-linecap:round;stroke-linejoin:round;stroke-miterlimit:10;" d="
						M417.681,305.829c-0.324-2.395,0.19-4.894,1.432-6.966s3.205-3.704,5.469-4.547"/>
					<path style="fill:none;stroke:#2C223B;stroke-width:3;stroke-linecap:round;stroke-linejoin:round;stroke-miterlimit:10;" d="
						M428.05,295.658c0.024-1.971,0.121-4.004,0.958-5.789c0.837-1.785,2.592-3.277,5.681-3.803c-1.373-3.35-0.013-7.592,3.05-9.521
						"/>
					<path style="fill:none;stroke:#2C223B;stroke-width:3;stroke-linecap:round;stroke-linejoin:round;stroke-miterlimit:10;" d="
						M435.247,275.322c-0.868-1.216-0.575-3.103,0.619-3.999"/>
				</g>
				
					<path style="fill:#FFFFFF;stroke:#2C223B;stroke-width:3;stroke-linecap:round;stroke-linejoin:round;stroke-miterlimit:10;" d="
					M376.149,233.077c-3.523,0.436-7.211,0.855-10.533-0.397c-3.322-1.252-6.087-4.755-5.242-8.203
					c0.762-3.11,4.163-4.982,7.364-5.053c3.201-0.07,6.251,1.243,9.183,2.532c-1.458-3.825,0.499-8.617,4.218-10.327
					c3.719-1.71,8.631-0.076,10.584,3.522c1.954,3.597,0.65,8.607-2.81,10.795c3.99,8.656,7.98,17.312,12.909,27.113
					c2.443-0.245,4.953-0.486,7.319,0.169c2.366,0.654,4.593,2.413,5.061,4.823c0.653,3.363-2.426,6.531-5.773,7.261
					c-3.348,0.73-6.8-0.297-10.072-1.313c-1.221,2.489-2.485,5.037-4.516,6.924c-2.031,1.887-5.028,2.994-7.632,2.044
					c-2.987-1.09-4.564-4.708-3.928-7.823c0.636-3.116,3.079-5.638,5.925-7.056C386.319,249.415,382.715,241.119,376.149,233.077z"
					/>
				
					<path style="fill:#FFFFFF;stroke:#2C223B;stroke-width:3;stroke-linecap:round;stroke-linejoin:round;stroke-miterlimit:10;" d="
					M367.874,200.801c-7.055-7.397-14.623-14.305-22.631-20.658c0.719-3.579,1.382-7.172,0.387-10.525
					c-0.994-3.353-4.221-6.323-7.674-5.767c-2.462,0.396-4.39,2.467-5.322,4.78c-0.932,2.313-1.044,4.862-1.144,7.354
					c-3.037-0.943-5.795-1.152-8.285-0.254c-2.49,0.898-4.638,3.106-4.829,5.746c-0.244,3.378,2.768,6.292,6.048,7.14
					c3.279,0.847,6.736,0.141,10.855-0.507c7.969,5.636,15.022,12.563,20.968,22.228c-0.882,1.824-1.771,3.671-2.181,5.655
					c-0.41,1.984-0.296,4.151,0.74,5.893c1.85,3.112,6.347,3.962,9.592,2.356c3.244-1.606,5.233-5.122,6.118-9.088
					c3.27,1.232,7.177,1.114,10.028-0.906c2.851-2.02,4.248-6.124,2.668-9.24c-1.176-2.318-3.695-3.714-6.251-4.186
					C374.405,200.35,371.778,200.67,367.874,200.801z"/>
			</g>
		</g>
	</g>
</g>
</svg>
